<svg id="Layer_1" enable-background="new 0 0 511.69 511.69" height="512" viewBox="0 0 511.69 511.69" width="512" xmlns="http://www.w3.org/2000/svg"><path d="m255.844 203.42c56.17 0 101.87-45.69 101.87-101.86 0-53.48-41.43-97.47-93.88-101.56-5.07 7.395-19.19 29.697-19.19 38.09.11 1.84 3.51 11.2 11.2 11.2 7.7 0 11.1-9.35 11.2-11.27 0-8.83 7.16-15.96 16-15.96s16 7.19 16 16.03c0 18.04-16.43 43.2-43.2 43.2s-43.2-25.16-43.2-43.2c0-9.83 4.75-21.9 10.62-33.05-40.25 13.62-69.29 51.74-69.29 96.52 0 56.17 45.7 101.86 101.87 101.86z"/><path d="m398.824 407.69c-13.604 0-25.543 8.673-29.81 21.49l-13.99 41.96c-6.663 19.986 8.298 40.55 29.22 40.55h2.36c12.77 0 24.36-8.03 28.85-19.99 16.141-43.047 14.79-36.036 14.79-52.59 0-17.32-14.1-31.42-31.42-31.42z"/><path d="m142.674 429.17c-3.113-9.34-10.347-16.584-19.51-19.75-20.389-7.088-41.72 8.165-41.72 29.69 0 16.558-1.305 9.665 14.79 52.59 4.49 11.96 16.08 19.99 28.85 19.99h2.36c20.893 0 35.89-20.54 29.22-40.55z"/><path d="m366.774 384.37v-3.88h-221.86v3.88c14.753 8.628 23.562 21.076 28.78 36.65h109.35c8.84 0 16 7.17 16 16 0 8.84-7.16 16-16 16h-98.69c3.811 11.419 9.494 25.921 3.06 46.52 43.625 16.192 93.219 16.198 136.86 0-3.766-12.058-3.911-25.618.39-38.52l13.99-41.96c4.99-14.97 15.16-27.11 28.12-34.69z"/><path d="m112.914 375.69v-11.2c0-8.84 7.16-16 16-16h14.7l15.11-60.41c2.14-8.58 10.83-13.79 19.4-11.65 8.57 2.15 13.79 10.83 11.64 19.41l-13.16 52.65h158.48l-13.16-52.65c-2.15-8.58 3.07-17.26 11.64-19.41 8.58-2.14 17.26 3.07 19.4 11.65l15.11 60.41h14.7c8.84 0 16 7.16 16 16 0 12.069-.05 11.2.05 11.2 7.04 0 13.81 1.15 20.15 3.28-7.206-64.946-30.896-157.675-96.45-161.37-.102 0-63.302 40.433-133.38-.01-65.51 3.404-89.275 96.119-96.34 161.35 6.444-2.155 13.175-3.25 20.11-3.25z"/></svg>