<svg id="Layer_1" enable-background="new 0 0 512.008 512.008" height="512" viewBox="0 0 512.008 512.008" width="512" xmlns="http://www.w3.org/2000/svg"><path d="m512.008 492.006c0 11.046-8.954 20-20 20h-472c-11.046 0-20-8.954-20-20s8.954-20 20-20h472c11.046 0 20 8.954 20 20zm-20-191c-11.046 0-20 8.954-20 20 0 25.96-8.799 43.37-27.69 54.791-17.793 10.756-44.645 16.209-79.81 16.209h-217c-53.297 0-99.427-39.229-107.301-91.25-.813-5.37.858-10.802 4.586-14.902 3.89-4.278 9.42-6.436 15.181-5.921 5.671.507 10.667 3.526 13.747 8.298l3.987 6.844c4.55 7.808 13.771 11.597 22.496 9.24 8.725-2.356 14.785-10.271 14.785-19.308 0-31.668 8.875-62.191 24.349-83.741 11.223-15.629 31.552-34.259 64.67-34.259 11.984 0 25.611 1.743 40.502 5.18 10.766 2.482 21.501-4.228 23.985-14.99 2.484-10.763-4.227-21.501-14.989-23.986-17.837-4.117-34.49-6.204-49.498-6.204-39.073 0-73.578 18.087-97.161 50.928-13.335 18.571-22.78 41.107-27.768 65.697-4.918-1.854-10.135-3.056-15.544-3.54-18.344-1.639-35.957 5.234-48.34 18.855-11.861 13.048-17.16 30.468-14.538 47.795 5.225 34.514 22.917 66.228 49.818 89.299 27.043 23.192 61.503 35.965 97.032 35.965h217c43.164 0 76.038-7.189 100.503-21.978 30.746-18.586 46.997-49.37 46.997-89.022.001-11.046-8.953-20-19.999-20zm-195.663 36.277c16.903 12.298 36.823 18.74 57.325 18.739 5.144 0 10.323-.405 15.502-1.226 25.83-4.091 48.52-18.009 63.888-39.189 13.212-18.208 24.131-48.387 32.454-89.697 2.183-10.828-4.827-21.375-15.655-23.556-10.821-2.181-21.374 4.827-23.557 15.656-6.979 34.64-16.077 60.958-25.617 74.106-9.088 12.525-22.502 20.755-37.771 23.173-15.258 2.414-30.54-1.26-43.038-10.352-25.828-18.791-31.571-55.121-12.803-80.987 9.472-13.055 31.89-29.768 63.125-47.061 9.379-5.193 20.592-6.207 30.762-2.785 19.238 6.474 40.105-.111 51.927-16.388l16.192-22.297c4.543 4.676 10.895 7.586 17.929 7.586 13.807 0 25-11.193 25-25s-11.193-25-25-25c-6.048 0-11.594 2.148-15.918 5.722 1.86-3.497 2.918-7.485 2.918-11.722 0-13.807-11.193-25-25-25s-25 11.193-25 25c0 10.003 5.876 18.629 14.364 22.626l-17.85 24.58c-1.49 2.054-4.225 2.85-6.802 1.982-20.789-6.997-43.713-4.919-62.896 5.7-37.302 20.652-62.915 40.356-76.126 58.565-31.706 43.696-21.995 105.075 21.647 136.825zm-50.601-241.276c-4.016 0-8.067-1.205-11.587-3.711-8.996-6.409-11.095-18.897-4.687-27.894.534-.75.902-1.345 1.152-1.791-.438-.8-1.038-1.806-1.526-2.623-4.882-8.174-15.04-25.182-.637-50.017 5.542-9.556 17.781-12.81 27.335-7.267 9.555 5.542 12.809 17.78 7.267 27.335-1.993 3.437-2.054 4.905-2.054 4.919.145.692 1.52 2.995 2.43 4.519 4.87 8.154 15.004 25.121-1.387 48.131-3.901 5.479-10.058 8.399-16.306 8.399zm-63.693-8.397c16.391-23.011 6.257-39.978 1.387-48.131-.91-1.523-2.285-3.826-2.43-4.519 0-.014.061-1.482 2.054-4.919 5.542-9.555 2.288-21.793-7.267-27.335-9.554-5.543-21.794-2.29-27.335 7.267-14.403 24.835-4.245 41.843.637 50.017.488.817 1.089 1.822 1.526 2.623-.25.446-.618 1.041-1.152 1.791-6.408 8.997-4.31 21.485 4.687 27.894 3.52 2.507 7.571 3.711 11.587 3.711 6.247-.002 12.404-2.922 16.306-8.399zm159 0c16.391-23.011 6.257-39.978 1.387-48.131-.91-1.523-2.285-3.826-2.43-4.519 0-.014.061-1.482 2.054-4.919 5.542-9.555 2.288-21.793-7.267-27.335-9.554-5.543-21.793-2.29-27.335 7.267-14.403 24.835-4.245 41.843.637 50.017.488.817 1.089 1.822 1.526 2.623-.25.446-.618 1.041-1.152 1.791-6.408 8.997-4.31 21.485 4.687 27.894 3.52 2.507 7.571 3.711 11.587 3.711 6.247-.002 12.404-2.922 16.306-8.399z"/></svg>