<?xml version="1.0" encoding="iso-8859-1"?>
<!-- Generator: Adobe Illustrator 19.0.0, SVG Export Plug-In . SVG Version: 6.00 Build 0)  -->
<svg version="1.1" id="Layer_1" xmlns="http://www.w3.org/2000/svg" xmlns:xlink="http://www.w3.org/1999/xlink" x="0px" y="0px"
	 viewBox="0 0 512 512" style="enable-background:new 0 0 512 512;" xml:space="preserve">
<g>
	<g>
		<path d="M145.183,34.13c-2.156-3.973-7.124-5.447-11.095-3.29c-8.737,4.741-17.302,10.06-25.456,15.808
			c-3.693,2.606-4.576,7.71-1.972,11.404c1.593,2.261,4.124,3.469,6.695,3.469c1.629,0,3.275-0.486,4.708-1.496
			c7.633-5.383,15.651-10.362,23.829-14.799C145.865,43.071,147.338,38.104,145.183,34.13z"/>
	</g>
</g>
<g>
	<g>
		<path d="M437.018,74.981C388.667,26.629,324.38,0,255.999,0c-30.744,0-60.831,5.406-89.427,16.071
			c-4.234,1.579-6.387,6.292-4.808,10.526c1.579,4.236,6.293,6.391,10.526,4.808c26.761-9.978,54.924-15.038,83.709-15.038
			c64.009,0,124.185,24.927,169.447,70.186c45.26,45.26,70.187,105.438,70.187,169.447s-24.927,124.185-70.187,169.447
			c-45.26,45.259-105.438,70.186-169.447,70.186s-124.185-24.927-169.447-70.186c-45.26-45.26-70.186-105.438-70.186-169.447
			c0-34.007,6.975-66.862,20.733-97.651c13.293-29.75,32.216-56.1,56.246-78.321c3.318-3.069,3.521-8.246,0.452-11.564
			c-3.069-3.318-8.246-3.522-11.563-0.452c-25.663,23.732-45.875,51.88-60.076,83.66C7.454,184.576,0,219.676,0,255.999
			c0,68.381,26.628,132.667,74.981,181.02S187.62,512,255.999,512c68.381,0,132.667-26.628,181.019-74.981
			C485.37,388.667,512,324.381,512,256.001S485.371,123.333,437.018,74.981z"/>
	</g>
</g>
<g>
	<g>
		<path d="M409.107,284.318c-1.055-4.396-5.474-7.096-9.867-6.048c-4.394,1.055-7.102,5.473-6.047,9.867
			c7.957,33.158,5.529,64.108-7.025,89.506c-11.155,22.568-29.917,40.487-55.936,53.485c13.962-26.04,20.204-57.157,18.174-91.469
			c-1.993-33.704-11.131-58.459-11.52-59.497c-1.313-3.51-4.839-5.681-8.566-5.266c-3.725,0.412-6.693,3.303-7.204,7.016
			c-1.603,11.619-11.305,20.996-17.505,25.9c-11.999-15.946-12.417-47.646-11.407-59.628c0.239-2.793-0.967-5.513-3.197-7.21
			c-2.231-1.698-5.175-2.133-7.802-1.161c-35.703,13.245-50.872,41.719-56.722,57.418c-8.701-7.326-15.188-19.135-17.33-24.089
			c-1.314-3.066-4.375-5.042-7.689-4.958c-3.333,0.069-6.292,2.153-7.479,5.268c-22.587,59.29-7.099,105.7,9.873,134.193
			c6.792,11.403,14.295,20.858,21.094,28.277c-50.792-11.458-84.162-34.021-99.378-67.27
			c-21.895-47.844,0.007-107.763,14.043-129.285c16.286-24.973,17.248-52.503,16.1-67.988c30.456,9.555,37.646,36.789,37.958,38.033
			c0.993,4.125,4.979,6.804,9.173,6.177c4.197-0.632,7.214-4.368,6.95-8.603c-0.034-0.54-2.851-54.247,42.315-78.159
			c32.629-17.274,52.164-36.686,62.365-49.064c14.166,38.255,6.839,60.801-0.272,82.675c-6.106,18.783-12.418,38.204-0.775,63.31
			c1.317,2.84,4.137,4.679,7.267,4.74c3.142,0.027,6.018-1.67,7.443-4.458c9.123-17.847,26.64-27.453,38.957-32.237
			c-1.618,11.626-0.406,28.866,11.711,50.158c1.758,3.491,3.442,7.069,5.007,10.635c1.816,4.14,6.643,6.021,10.781,4.206
			c4.138-1.816,6.022-6.643,4.206-10.781c-1.71-3.898-3.553-7.808-5.477-11.62c-0.064-0.125-0.131-0.25-0.201-0.372
			c-17.44-30.521-7.602-48.764-6.829-50.105c1.807-2.719,1.762-6.161-0.023-8.901c-1.795-2.752-5.123-4.074-8.357-3.491
			c-1.572,0.28-33.23,6.206-54.23,30.184c-1.679-12.328,1.884-23.291,6.083-36.209c8.034-24.715,18.031-55.475-5.918-107.809
			c-1.279-2.795-4.023-4.624-7.092-4.757c-3.069-0.121-5.964,1.477-7.479,4.151c-0.17,0.299-17.54,30.248-64.826,55.282
			c-31.419,16.634-43.61,44.414-48.271,65.423c-9.295-11.612-24.525-23.5-48.917-27.04c-2.655-0.391-5.329,0.563-7.16,2.527
			c-1.83,1.963-2.578,4.706-2.008,7.329c0.08,0.369,7.787,37.189-12.191,67.824c-12.438,19.071-41.934,86.654-15.217,145.035
			c20.29,44.339,67.21,71.778,139.457,81.557c3.742,0.501,7.345-1.614,8.72-5.132c1.374-3.519,0.161-7.52-2.933-9.683
			c-0.214-0.149-21.521-15.234-38.018-42.931c-19.049-31.983-23.78-66.548-14.144-102.964c5.767,8.037,14.007,16.808,24.438,20.98
			c2.261,0.903,4.808,0.755,6.948-0.409c2.14-1.163,3.65-3.22,4.12-5.61c0.072-0.365,6.885-33.177,38.254-50.853
			c0.284,18.02,3.585,49.177,21.77,64.431c2.663,2.236,6.448,2.541,9.437,0.767c0.717-0.427,11.882-7.165,20.602-18.679
			c6.773,31.211,12.718,91.01-25.159,136.756c-2.331,2.816-2.512,6.837-0.444,9.849c1.557,2.269,4.105,3.554,6.748,3.554
			c0.867,0,1.747-0.139,2.602-0.427c43.175-14.49,73.372-38.636,89.748-71.768C415.11,356.023,417.969,321.243,409.107,284.318z"/>
	</g>
</g>
<g>
</g>
<g>
</g>
<g>
</g>
<g>
</g>
<g>
</g>
<g>
</g>
<g>
</g>
<g>
</g>
<g>
</g>
<g>
</g>
<g>
</g>
<g>
</g>
<g>
</g>
<g>
</g>
<g>
</g>
</svg>
