<?xml version="1.0" encoding="UTF-8"?>
<svg xmlns="http://www.w3.org/2000/svg" xmlns:xlink="http://www.w3.org/1999/xlink" width="512" height="512" viewBox="0 0 60 60" version="1.1"><!-- Generator: Sketch 51.3 (57544) - http://www.bohemiancoding.com/sketch --><title>020 - Moving House</title><desc>Created with Sketch.</desc><defs/><g id="Page-1" stroke="none" stroke-width="1" fill="none" fill-rule="evenodd"><g id="020---Moving-House" transform="translate(-1.000000, 0.000000)" fill="#000000" fill-rule="nonzero"><path d="M2.557,13.073 C3.29085478,13.5142263 4.17178135,13.6404335 5,13.423 L5,27 C5,28.1045695 5.8954305,29 7,29 L27,29 C28.1045695,29 29,28.1045695 29,27 L29,13.428 C29.9585672,13.6755011 30.9777157,13.46539 31.7602297,12.8589416 C32.5427438,12.2524932 33.0004992,11.3180039 33,10.328 C33.0004965,9.14332855 32.346457,8.05531469 31.3,7.5 L29,6.267 L29,2 C29,0.8954305 28.1045695,6.76353751e-17 27,0 L25,0 C23.8954305,-6.76353751e-17 23,0.8954305 23,2 L23,3.067 L17.471,0.118 C17.1766639,-0.0391557201 16.8233361,-0.0391557201 16.529,0.118 L2.7,7.5 C1.68091177,8.04367962 1.03305457,9.09351042 1.00407369,10.2481915 C0.975092804,11.4028726 1.5694689,12.4838817 2.56,13.078 L2.557,13.073 Z M15,27 L15,24 C15,22.8954305 15.8954305,22 17,22 C18.1045695,22 19,22.8954305 19,24 L19,27 L15,27 Z M21,27 L21,24 C21,21.790861 19.209139,20 17,20 C14.790861,20 13,21.790861 13,24 L13,27 L7,27 L7,12.467 L17,7.133 L27,12.467 L27,27 L21,27 Z M25,2 L27,2 L27,5.2 L25,4.133 L25,2 Z M3.639,9.259 L17,2.133 L23.591,5.649 L23.619,5.663 L30.361,9.263 C30.7532107,9.47192621 30.9987463,9.87961527 31,10.324 C30.9998596,10.7474448 30.7776506,11.1397945 30.4145677,11.3576852 C30.0514848,11.5755759 29.6007269,11.5870823 29.227,11.388 L28.409,10.952 C28.399,10.947 28.391,10.941 28.381,10.937 L17.471,5.118 C17.1766639,4.96084428 16.8233361,4.96084428 16.529,5.118 L5.619,10.937 L5.591,10.951 L4.773,11.388 C4.39927314,11.5870823 3.94851516,11.5755759 3.58543228,11.3576852 C3.2223494,11.1397945 3.00014037,10.7474448 3,10.324 C2.99977817,9.87817906 3.24552419,9.46860235 3.639,9.259 Z" id="Shape"/><path d="M13,13 L11,13 C9.8954305,13 9,13.8954305 9,15 L9,17 C9,18.1045695 9.8954305,19 11,19 L13,19 C14.1045695,19 15,18.1045695 15,17 L15,15 C15,13.8954305 14.1045695,13 13,13 Z M11,17 L11,15 L13,15 L13,17 L11,17 Z" id="Shape"/><path d="M23,13 L21,13 C19.8954305,13 19,13.8954305 19,15 L19,17 C19,18.1045695 19.8954305,19 21,19 L23,19 C24.1045695,19 25,18.1045695 25,17 L25,15 C25,13.8954305 24.1045695,13 23,13 Z M21,17 L21,15 L23,15 L23,17 L21,17 Z" id="Shape"/><path d="M35,60 L55,60 C56.1045695,60 57,59.1045695 57,58 L57,44.428 C57.9585672,44.6755011 58.9777157,44.46539 59.7602297,43.8589416 C60.5427438,43.2524932 61.0004992,42.3180039 61,41.328 C61.0008668,40.1429696 60.3467744,39.0544828 59.3,38.499 L45.471,31.118 C45.1766639,30.9608443 44.8233361,30.9608443 44.529,31.118 L39,34.067 L39,32 C39,30.8954305 38.1045695,30 37,30 L35,30 C33.8954305,30 33,30.8954305 33,32 L33,37.267 L30.7,38.495 C29.6809118,39.0386796 29.0330546,40.0885104 29.0040737,41.2431915 C28.9750928,42.3978726 29.5694689,43.4788817 30.56,44.073 C31.2935426,44.5151029 32.1748348,44.6413626 33.003,44.423 L33.003,58 C33.0029988,59.103399 33.8966023,59.9983449 35,60 Z M43,58 L43,55 C43,53.8954305 43.8954305,53 45,53 C46.1045695,53 47,53.8954305 47,55 L47,58 L43,58 Z M49,58 L49,55 C49,52.790861 47.209139,51 45,51 C42.790861,51 41,52.790861 41,55 L41,58 L35,58 L35,43.467 L45,38.133 L55,43.467 L55,58 L49,58 Z M35,32 L37,32 L37,35.133 L35,36.2 L35,32 Z M31.585,42.357 C31.2183773,42.1429681 30.994983,41.7484958 31,41.324 C30.9997782,40.8781791 31.2455242,40.4686024 31.639,40.259 L38.381,36.659 L38.409,36.645 L45,33.133 L58.361,40.259 C58.7544758,40.4686024 59.0002218,40.8781791 59,41.324 C58.9998596,41.7474448 58.7776506,42.1397945 58.4145677,42.3576852 C58.0514848,42.5755759 57.6007269,42.5870823 57.227,42.388 L56.409,41.952 C56.399,41.952 56.391,41.941 56.381,41.937 L45.471,36.118 C45.1766639,35.9608443 44.8233361,35.9608443 44.529,36.118 L33.619,41.937 C33.609,41.937 33.601,41.947 33.591,41.951 L32.773,42.388 C32.4003187,42.592385 31.9465148,42.5805433 31.585,42.357 Z" id="Shape"/><path d="M41,44 L39,44 C37.8954305,44 37,44.8954305 37,46 L37,48 C37,49.1045695 37.8954305,50 39,50 L41,50 C42.1045695,50 43,49.1045695 43,48 L43,46 C43,44.8954305 42.1045695,44 41,44 Z M39,48 L39,46 L41,46 L41,48 L39,48 Z" id="Shape"/><path d="M51,44 L49,44 C47.8954305,44 47,44.8954305 47,46 L47,48 C47,49.1045695 47.8954305,50 49,50 L51,50 C52.1045695,50 53,49.1045695 53,48 L53,46 C53,44.8954305 52.1045695,44 51,44 Z M49,48 L49,46 L51,46 L51,48 L49,48 Z" id="Shape"/><path d="M21.553,58.9 C21.8927613,59.0677128 22.2981287,59.0289957 22.6,58.8 L30.6,52.8 C30.8518058,52.6111456 31,52.3147573 31,52 C31,51.6852427 30.8518058,51.3888544 30.6,51.2 L22.6,45.2 C22.2969824,44.9727368 21.8915704,44.9361808 21.5527864,45.1055728 C21.2140024,45.2749648 21,45.6212279 21,46 L21,47.617 C10.407,45.478 9.028,34.982 8.973,34.519 C8.70097071,32.3355782 6.72226497,30.7778547 4.536,31.026 C3.48133475,31.1487818 2.51876027,31.6858521 1.86037325,32.5188711 C1.20198622,33.3518901 0.901814912,34.4124991 1.026,35.467 C1.762,41.714 6.89,53.8 21,55.727 L21,58 C20.9979212,58.3808256 21.2123306,58.7297741 21.553,58.9 Z M3.013,35.235 C2.95087971,34.707329 3.1012755,34.1766262 3.431,33.76 C3.75728021,33.3414198 4.23857774,33.0721095 4.766,33.013 C5.85979633,32.8877217 6.85050151,33.6665472 6.987,34.759 C7.052,35.298 8.72,47.993 21.864,49.791 C22.1504398,49.8317278 22.4403255,49.7447255 22.657,49.553 C22.8746852,49.3632921 22.9997427,49.0887488 23,48.8 L23,48 L28.33,52 L23,56 L23,54.84 C23.0025832,54.3245219 22.6129013,53.891542 22.1,53.84 C8.572,52.451 3.7,41.061 3.013,35.235 Z" id="Shape"/><path d="M37.465,0.027 C36.4111286,-0.0966422504 35.3513133,0.203522288 34.5187963,0.861433895 C33.6862793,1.5193455 33.1492871,2.48108704 33.026,3.535 C32.7784513,5.72199996 34.3369119,7.7009551 36.521,7.973 C36.981,8.028 47.479,9.414 49.621,20 L48,20 C47.6212279,20 47.2749648,20.2140024 47.1055728,20.5527864 C46.9361808,20.8915704 46.9727368,21.2969824 47.2,21.6 L53.2,29.6 C53.3888544,29.8518058 53.6852427,30 54,30 C54.3147573,30 54.6111456,29.8518058 54.8,29.6 L60.8,21.6 C61.0272632,21.2969824 61.0638192,20.8915704 60.8944272,20.5527864 C60.7250352,20.2140024 60.3787721,20 60,20 L57.728,20 C55.8,5.89 43.714,0.762 37.465,0.027 Z M56.84,22 L58,22 L54,27.33 L50,22 L50.8,22 C51.0889868,22.0000841 51.36388,21.8751463 51.5538532,21.6573768 C51.7438264,21.4396073 51.8303022,21.1503018 51.791,20.864 C49.994,7.729 37.3,6.052 36.761,5.987 C35.6681695,5.84997566 34.8888823,4.85937152 35.013,3.765 C35.0723678,3.23793728 35.341653,2.75704515 35.76,2.431 C36.1758583,2.10204989 36.7053232,1.95169913 37.232,2.013 C43.061,2.7 54.45,7.572 55.845,21.1 C55.8963565,21.610991 56.3264347,22.0000065 56.84,22 Z" id="Shape"/></g></g></svg>
