<svg id="Capa_1" enable-background="new 0 0 512 512" height="512" viewBox="0 0 512 512" width="512" xmlns="http://www.w3.org/2000/svg"><g><g><path d="m269.171 362.028c0-11.936 1.548-23.517 4.445-34.557h-18.352c-8.284 0-15-6.716-15-15s6.716-15 15-15h30.21c5.237-9.69 11.617-18.674 18.949-26.783h-266.107c-19.056 13.603-30.729 35.448-35.625 61.34h146.335c8.284 0 15 6.716 15 15s-6.716 15-15 15h-149.026c0 58.487 27.949 106.339 89.35 106.339h230.969c-31.161-25.008-51.148-63.382-51.148-106.339zm-27.145 57.437h-127.058c-8.284 0-15-6.716-15-15s6.716-15 15-15h127.059c8.284 0 15 6.716 15 15s-6.716 15-15.001 15z"/><g><ellipse cx="405.585" cy="362.028" rx="26.33" ry="26.348" transform="matrix(.002 -1 1 .002 42.751 766.892)"/><path d="m460.097 270.689h-109.023c-31.085 18.565-51.903 52.521-51.903 91.339 0 58.73 47.643 106.34 106.414 106.34s106.415-47.611 106.415-106.34c0-38.819-20.818-72.774-51.903-91.339zm-54.512 147.668c-31.07 0-56.348-25.27-56.348-56.329 0-31.061 25.277-56.33 56.348-56.33 31.07 0 56.349 25.27 56.349 56.33s-25.279 56.329-56.349 56.329z"/></g></g><g><path d="m226.525 85.416h30.21c8.284 0 15 6.716 15 15s-6.716 15-15 15h-18.352c2.897 11.04 4.445 22.62 4.445 34.557 0 34.806-13.124 66.599-34.678 90.716h266.411c25.472-18.738 37.439-52.45 37.439-90.717h-149.026c-8.284 0-15-6.716-15-15s6.716-15 15-15h146.335c-8.32-43.999-36.184-76.339-86.658-76.339h-230.97c14.227 11.418 26.114 25.629 34.844 41.783zm170.507 91.993c8.284 0 15 6.716 15 15s-6.716 15-15 15h-127.058c-8.284 0-15-6.716-15-15s6.716-15 15-15z"/><g><ellipse cx="106.415" cy="149.972" rx="26.348" ry="26.33" transform="matrix(1 -.002 .002 1 -.298 .212)"/><path d="m50.869 240.689h111.091c30.512-18.696 50.869-52.329 50.869-90.716 0-58.729-47.643-106.339-106.414-106.339-58.772-.001-106.415 47.609-106.415 106.338 0 38.387 20.357 72.02 50.869 90.717zm55.546-147.046c31.07 0 56.348 25.27 56.348 56.33 0 31.059-25.277 56.329-56.348 56.329-31.07 0-56.349-25.27-56.349-56.329 0-31.061 25.279-56.33 56.349-56.33z"/></g></g></g></svg>