<?xml version="1.0" encoding="iso-8859-1"?>
<!-- Generator: Adobe Illustrator 19.0.0, SVG Export Plug-In . SVG Version: 6.00 Build 0)  -->
<svg version="1.1" id="Capa_1" xmlns="http://www.w3.org/2000/svg" xmlns:xlink="http://www.w3.org/1999/xlink" x="0px" y="0px"
	 viewBox="0 0 512 512" style="enable-background:new 0 0 512 512;" xml:space="preserve">
<g>
	<g>
		<path d="M216.964,128.172l4.468-4.274c3.991-3.817,4.132-10.147,0.314-14.139c-3.817-3.991-10.147-4.133-14.139-0.314
			l-5.111,4.889l-5.111-4.889c-3.992-3.818-10.321-3.677-14.139,0.314c-3.817,3.991-3.677,10.321,0.314,14.139l4.468,4.274
			l-4.468,4.274c-3.991,3.818-4.132,10.148-0.314,14.139c1.964,2.054,4.594,3.088,7.228,3.088c2.484,0,4.973-0.92,6.911-2.773
			l5.111-4.889l5.111,4.889c1.938,1.853,4.426,2.773,6.911,2.773c2.634,0,5.264-1.034,7.228-3.088
			c3.817-3.991,3.677-10.321-0.314-14.139L216.964,128.172z"/>
	</g>
</g>
<g>
	<g>
		<path d="M323.972,128.172l4.468-4.274c3.991-3.817,4.132-10.147,0.314-14.139c-3.817-3.991-10.147-4.133-14.139-0.314
			l-5.111,4.889l-5.111-4.889c-3.991-3.818-10.321-3.677-14.139,0.314c-3.817,3.991-3.677,10.321,0.314,14.139l4.468,4.274
			l-4.468,4.274c-3.99,3.818-4.131,10.148-0.314,14.139c1.964,2.054,4.594,3.088,7.228,3.088c2.484,0,4.973-0.92,6.911-2.773
			l5.111-4.889l5.111,4.889c1.938,1.853,4.426,2.773,6.911,2.773c2.634,0,5.264-1.034,7.228-3.088
			c3.817-3.991,3.677-10.321-0.314-14.139L323.972,128.172z"/>
	</g>
</g>
<g>
	<g>
		<path d="M216.964,203.031l4.468-4.274c3.991-3.817,4.132-10.147,0.314-14.139c-3.817-3.991-10.147-4.133-14.139-0.314
			l-5.111,4.889l-5.111-4.889c-3.992-3.817-10.321-3.677-14.139,0.314c-3.817,3.991-3.677,10.321,0.314,14.139l4.468,4.274
			l-4.468,4.274c-3.991,3.818-4.132,10.148-0.314,14.139c1.964,2.054,4.594,3.088,7.228,3.088c2.484,0,4.973-0.92,6.911-2.773
			l5.111-4.889l5.111,4.889c1.938,1.853,4.426,2.773,6.911,2.773c2.634,0,5.264-1.034,7.228-3.088
			c3.817-3.991,3.677-10.321-0.314-14.139L216.964,203.031z"/>
	</g>
</g>
<g>
	<g>
		<path d="M323.972,203.031l4.468-4.274c3.991-3.817,4.132-10.147,0.314-14.139c-3.817-3.991-10.147-4.133-14.139-0.314
			l-5.111,4.889l-5.111-4.889c-3.991-3.817-10.321-3.677-14.139,0.314c-3.817,3.991-3.677,10.321,0.314,14.139l4.468,4.274
			l-4.468,4.274c-3.99,3.818-4.131,10.148-0.314,14.139c1.964,2.054,4.594,3.088,7.228,3.088c2.484,0,4.973-0.92,6.911-2.773
			l5.111-4.889l5.111,4.889c1.938,1.853,4.426,2.773,6.911,2.773c2.634,0,5.264-1.034,7.228-3.088
			c3.817-3.991,3.677-10.321-0.314-14.139L323.972,203.031z"/>
	</g>
</g>
<g>
	<g>
		<path d="M361.13,299.799c-0.13-0.64-0.32-1.26-0.57-1.87c-0.25-0.6-0.56-1.18-0.92-1.72c-0.36-0.55-0.78-1.06-1.24-1.52
			c-0.46-0.46-0.97-0.88-1.52-1.25c-0.54-0.36-1.12-0.67-1.73-0.92c-0.6-0.25-1.23-0.44-1.87-0.57c-1.29-0.26-2.62-0.26-3.91,0
			c-0.63,0.13-1.26,0.32-1.87,0.57c-0.6,0.25-1.18,0.56-1.72,0.92c-0.55,0.37-1.06,0.79-1.52,1.25c-0.46,0.46-0.88,0.97-1.25,1.52
			c-0.36,0.54-0.66,1.12-0.91,1.72c-0.25,0.61-0.45,1.23-0.57,1.87c-0.13,0.65-0.2,1.3-0.2,1.96c0,0.65,0.07,1.31,0.2,1.95
			c0.12,0.64,0.32,1.27,0.57,1.87c0.25,0.61,0.55,1.19,0.91,1.73c0.37,0.55,0.79,1.06,1.25,1.52c0.46,0.46,0.97,0.88,1.52,1.24
			c0.54,0.36,1.12,0.67,1.72,0.92c0.61,0.25,1.24,0.44,1.87,0.57c0.65,0.13,1.31,0.2,1.96,0.2c0.65,0,1.31-0.07,1.95-0.2
			s1.27-0.32,1.87-0.57c0.61-0.25,1.19-0.56,1.73-0.92c0.55-0.36,1.06-0.78,1.52-1.24c0.46-0.46,0.88-0.97,1.24-1.52
			c0.36-0.54,0.67-1.12,0.92-1.73c0.25-0.6,0.44-1.23,0.57-1.87s0.2-1.3,0.2-1.95C361.33,301.099,361.26,300.449,361.13,299.799z"/>
	</g>
</g>
<g>
	<g>
		<path d="M492.794,201.679c-12.383-12.235-28.828-18.825-46.213-18.649c-2.645,0.032-5.253,0.227-7.814,0.576V76.486
			c0-28.375-23.085-51.46-51.46-51.46H124.693c-28.375,0-51.46,23.085-51.46,51.46v107.121c-2.561-0.349-5.169-0.545-7.814-0.576
			c-17.402-0.218-33.83,6.413-46.213,18.649C6.821,213.917,0,230.244,0,247.653c0,23.545,12.748,44.998,32.982,56.355v172.967
			c0,5.523,4.477,10,10,10h60.77c5.523,0,10-4.477,10-10v-26.526h284.497v26.526c0,5.523,4.477,10,10,10h60.77
			c5.523,0,10-4.477,10-10V304.021c0-0.013,0,0,0-0.013C499.252,292.651,512,271.198,512,247.653
			C512,230.242,505.179,213.916,492.794,201.679z M124.693,45.026h262.613c17.347,0,31.46,14.113,31.46,31.46v113.31
			c-9.287,4.664-17.197,11.474-23.218,19.686V78.244c0-5.523-4.477-10-10-10H126.452c-5.523,0-10,4.477-10,10v131.239
			c-6.022-8.213-13.932-15.022-23.218-19.687V76.486h-0.001C93.233,59.138,107.346,45.026,124.693,45.026z M311.309,291.756H129.253
			v-10.348c7.003-10.53,18.792-17.072,31.477-17.372c0.119-0.003,0.238-0.005,0.357-0.007c0.043-0.001,0.086-0.001,0.129-0.001
			c0.143-0.002,0.285-0.003,0.428-0.003h188.712c0.143,0,0.285,0.001,0.428,0.003c0.043,0.001,0.086,0.001,0.129,0.001
			c0.119,0.002,0.238,0.004,0.357,0.007c12.686,0.3,24.475,6.842,31.477,17.372v43.642H129.253v-13.294h182.056
			c5.523,0,10-4.477,10-10S316.832,291.756,311.309,291.756z M136.452,249.643v-161.4h239.097v161.4
			c-7.604-3.605-15.966-5.538-24.653-5.615c-0.022,0-0.044,0-0.066-0.001c-0.158-0.001-0.316-0.002-0.474-0.002H161.644
			c-0.158,0-0.316,0.001-0.474,0.002c-0.022,0-0.044,0.001-0.066,0.001C152.418,244.104,144.056,246.037,136.452,249.643z
			 M46.948,288.634C30.578,281.56,20,265.474,20,247.653c0-12.022,4.71-23.296,13.263-31.747
			c8.551-8.448,19.872-13.034,31.917-12.876c17.812,0.214,33.19,11.234,40.134,26.866c0.052,0.118,0.104,0.236,0.155,0.355
			c0.002,0.004,0.003,0.007,0.005,0.011c2.101,4.859,3.383,10.121,3.702,15.575c0.001,0.016,0.002,0.031,0.003,0.046
			c0.021,0.364,0.037,0.729,0.049,1.095c0.003,0.094,0.006,0.188,0.009,0.283c0.002,0.076,0.004,0.151,0.006,0.227
			c0.002,0.109,0.004,0.217,0.006,0.326c0.001,0.064,0.002,0.127,0.003,0.19c0.002,0.172,0.003,0.344,0.003,0.516v76.53H52.982
			v-27.236C52.982,293.824,50.611,290.217,46.948,288.634z M459.018,466.974h-40.77v-26.526c0-5.523-4.477-10-10-10H103.752
			c-5.523,0-10,4.477-10,10v26.526h-40.77v-65.152h406.036V466.974z M459.018,381.821H52.982V345.05h406.036V381.821z
			 M465.051,288.633c-3.662,1.582-6.034,5.19-6.034,9.18v27.236h-56.272v-76.53c0-0.172,0.001-0.344,0.003-0.516
			c0.001-0.063,0.002-0.127,0.003-0.19c0.002-0.109,0.004-0.217,0.006-0.326c0.002-0.076,0.004-0.152,0.006-0.227
			c0.003-0.094,0.006-0.189,0.009-0.283c0.012-0.365,0.028-0.729,0.049-1.092c0.001-0.017,0.002-0.033,0.003-0.05
			c0.318-5.444,1.597-10.697,3.691-15.548c0.013-0.03,0.026-0.06,0.039-0.09c0.041-0.093,0.081-0.187,0.122-0.279
			c6.94-15.645,22.324-26.675,40.145-26.889c12.021-0.164,23.366,4.428,31.917,12.876C487.29,224.357,492,235.63,492,247.653
			C492,265.474,481.422,281.56,465.051,288.633z"/>
	</g>
</g>
<g>
</g>
<g>
</g>
<g>
</g>
<g>
</g>
<g>
</g>
<g>
</g>
<g>
</g>
<g>
</g>
<g>
</g>
<g>
</g>
<g>
</g>
<g>
</g>
<g>
</g>
<g>
</g>
<g>
</g>
</svg>
