<svg height="512pt" viewBox="0 0 512 512" width="512pt" xmlns="http://www.w3.org/2000/svg"><path d="m256 241.0625c-8.238281 0-14.9375 6.699219-14.9375 14.9375s6.699219 14.9375 14.9375 14.9375 14.9375-6.699219 14.9375-14.9375-6.699219-14.9375-14.9375-14.9375zm0 0"/><path d="m256 90c-91.53125 0-166 74.46875-166 166s74.46875 166 166 166 166-74.46875 166-166-74.46875-166-166-166zm105.941406 181h-63.585937c-6.1875 17.425781-22.835938 29.9375-42.355469 29.9375-24.78125 0-44.9375-20.160156-44.9375-44.9375 0-19.519531 12.511719-36.164062 29.9375-42.355469v-93.609375h30v93.609375c12.730469 4.519531 22.835938 14.625 27.355469 27.355469h63.585937zm0 0"/><path d="m437.019531 74.980469c-48.351562-48.351563-112.640625-74.980469-181.019531-74.980469s-132.667969 26.628906-181.019531 74.980469c-48.351563 48.351562-74.980469 112.640625-74.980469 181.019531s26.628906 132.667969 74.980469 181.019531c48.351562 48.351563 112.640625 74.980469 181.019531 74.980469s132.667969-26.628906 181.019531-74.980469c48.351563-48.351562 74.980469-112.640625 74.980469-181.019531s-26.628906-132.667969-74.980469-181.019531zm-181.019531 377.019531c-108.074219 0-196-87.925781-196-196s87.925781-196 196-196 196 87.925781 196 196-87.925781 196-196 196zm0 0"/></svg>