<?xml version="1.0"?>
<svg xmlns="http://www.w3.org/2000/svg" id="Outline" viewBox="0 0 512 512" width="512" height="512"><path d="M488,472V40a24.028,24.028,0,0,0-24-24H48A24.028,24.028,0,0,0,24,40V472a24.028,24.028,0,0,0,24,24h80a23.9,23.9,0,0,0,16-6.131A23.9,23.9,0,0,0,160,496h80a23.9,23.9,0,0,0,16-6.131A23.9,23.9,0,0,0,272,496h80a23.9,23.9,0,0,0,16-6.131A23.9,23.9,0,0,0,384,496h80A24.028,24.028,0,0,0,488,472ZM376,32a8.009,8.009,0,0,1,8,8V312a8.009,8.009,0,0,1-8,8H360a8.009,8.009,0,0,1-8-8V40a8.009,8.009,0,0,1,8-8ZM264,32a8.009,8.009,0,0,1,8,8V312a8.009,8.009,0,0,1-8,8H248a8.009,8.009,0,0,1-8-8V40a8.009,8.009,0,0,1,8-8ZM152,32a8.009,8.009,0,0,1,8,8V312a8.009,8.009,0,0,1-8,8H136a8.009,8.009,0,0,1-8-8V40a8.009,8.009,0,0,1,8-8ZM128,480H48a8.009,8.009,0,0,1-8-8V40a8.009,8.009,0,0,1,8-8h65.376A23.889,23.889,0,0,0,112,40V312a24.027,24.027,0,0,0,24,24V472A8.009,8.009,0,0,1,128,480Zm112,0H160a8.009,8.009,0,0,1-8-8V336a24.027,24.027,0,0,0,24-24V40a23.889,23.889,0,0,0-1.376-8h50.752A23.889,23.889,0,0,0,224,40V312a24.027,24.027,0,0,0,24,24V472A8.009,8.009,0,0,1,240,480Zm112,0H272a8.009,8.009,0,0,1-8-8V336a24.027,24.027,0,0,0,24-24V40a23.889,23.889,0,0,0-1.376-8h50.752A23.889,23.889,0,0,0,336,40V312a24.027,24.027,0,0,0,24,24V472A8.009,8.009,0,0,1,352,480Zm120-8a8.009,8.009,0,0,1-8,8H384a8.009,8.009,0,0,1-8-8V336a24.027,24.027,0,0,0,24-24V40a23.889,23.889,0,0,0-1.376-8H464a8.009,8.009,0,0,1,8,8Z"/></svg>
